<svg width="42" height="43" viewBox="0 0 42 43" fill="none" xmlns="http://www.w3.org/2000/svg">
<rect x="1.25" y="1.25" width="39.5" height="40.5" rx="18.75" fill="#9C0000" stroke="#6F0000" stroke-width="1.5"/>
<rect x="2" y="2" width="38" height="36" rx="18" fill="url(#paint0_linear_2_1403)"/>
<path d="M16.25 4.08528C15.25 3.58529 11.5833 5.41863 10.75 6.08529C8.25 8.08529 8.75 8.5853 10.25 8.5853C11.75 8.5853 18.5304 5.22545 16.25 4.08528Z" fill="white"/>
<path d="M27.6119 23.7231L24.2528 20.364L27.9002 16.7166C28.7814 15.8354 28.7814 14.4068 27.9002 13.5256C27.0245 12.6499 25.6065 12.6437 24.7232 13.5119L21.0883 17.0843L17.7635 13.5991C16.8883 12.6817 15.4279 12.6694 14.5374 13.572C13.6912 14.4296 13.6717 15.8018 14.4932 16.6831L17.9076 20.3457L14.5302 23.7231C13.6516 24.6017 13.6516 26.0263 14.5302 26.9049C15.4088 27.7835 16.8333 27.7835 17.7119 26.9049L21.0711 23.5458L24.4302 26.9049C25.3088 27.7835 26.7333 27.7835 27.6119 26.9049L27.0929 26.3858L27.6119 26.9049C28.4906 26.0263 28.4906 24.6017 27.6119 23.7231Z" fill="white" stroke="#820000" stroke-width="1.5"/>
<defs>
<linearGradient id="paint0_linear_2_1403" x1="21" y1="2" x2="21" y2="38" gradientUnits="userSpaceOnUse">
<stop stop-color="#F20C0C"/>
<stop offset="1" stop-color="#D31414"/>
</linearGradient>
</defs>
</svg>
