<svg width="81" height="43" viewBox="0 0 81 43" fill="none" xmlns="http://www.w3.org/2000/svg">
<rect x="1.25" y="1.25" width="78.5" height="40.5" rx="18.75" fill="#56A300" stroke="#205E00" stroke-width="1.5"/>
<rect x="2" y="2" width="77" height="36" rx="18" fill="url(#paint0_linear_2_1408)"/>
<path d="M16.25 4.08528C15.25 3.58529 11.5833 5.41863 10.75 6.08529C8.25 8.08529 8.75 8.5853 10.25 8.5853C11.75 8.5853 18.5304 5.22545 16.25 4.08528Z" fill="white"/>
<path d="M23.5771 26.162C23.0491 26.162 22.6711 26.084 22.4431 25.928C22.2151 25.76 22.0771 25.55 22.0291 25.298C21.9811 25.046 21.9571 24.782 21.9571 24.506V15.164C21.9571 14.9 21.9811 14.648 22.0291 14.408C22.0771 14.168 22.2151 13.97 22.4431 13.814C22.6831 13.658 23.0731 13.58 23.6131 13.58C24.1411 13.58 24.5011 13.646 24.6931 13.778C24.8851 13.91 25.0591 14.078 25.2151 14.282L29.7151 20.33V15.164C29.7151 14.9 29.7391 14.648 29.7871 14.408C29.8471 14.168 29.9911 13.97 30.2191 13.814C30.4471 13.658 30.8311 13.58 31.3711 13.58C31.9231 13.58 32.3071 13.664 32.5231 13.832C32.7511 13.988 32.8891 14.192 32.9371 14.444C32.9851 14.696 33.0091 14.96 33.0091 15.236V24.524C33.0091 24.788 32.9851 25.046 32.9371 25.298C32.8891 25.55 32.7511 25.76 32.5231 25.928C32.2951 26.084 31.9051 26.162 31.3531 26.162C30.9451 26.162 30.6331 26.126 30.4171 26.054C30.2131 25.994 30.0391 25.868 29.8951 25.676L25.2331 19.52V24.524C25.2331 24.788 25.2091 25.046 25.1611 25.298C25.1131 25.55 24.9751 25.76 24.7471 25.928C24.5191 26.084 24.1291 26.162 23.5771 26.162ZM38.6957 26.36C37.7957 26.36 37.0337 26.216 36.4097 25.928C35.7857 25.628 35.2817 25.244 34.8977 24.776C34.5137 24.296 34.2317 23.78 34.0517 23.228C33.8717 22.676 33.7817 22.142 33.7817 21.626C33.7817 20.678 33.9917 19.844 34.4117 19.124C34.8317 18.404 35.4137 17.84 36.1577 17.432C36.9017 17.024 37.7537 16.82 38.7137 16.82C39.4577 16.82 40.0937 16.94 40.6217 17.18C41.1497 17.42 41.5757 17.726 41.8997 18.098C42.2357 18.47 42.4817 18.866 42.6377 19.286C42.7937 19.706 42.8717 20.096 42.8717 20.456C42.8717 21.14 42.7037 21.662 42.3677 22.022C42.0317 22.382 41.5997 22.562 41.0717 22.562H37.2377C37.2857 22.754 37.3817 22.922 37.5257 23.066C37.6817 23.198 37.8737 23.306 38.1017 23.39C38.3297 23.462 38.5757 23.498 38.8397 23.498C39.1037 23.498 39.3377 23.486 39.5417 23.462C39.7457 23.426 39.9197 23.384 40.0637 23.336C40.2197 23.288 40.3577 23.24 40.4777 23.192C40.6097 23.144 40.7237 23.108 40.8197 23.084C40.9277 23.048 41.0297 23.03 41.1257 23.03C41.3417 23.03 41.5397 23.102 41.7197 23.246C41.8997 23.39 42.0617 23.606 42.2057 23.894C42.2897 24.05 42.3497 24.2 42.3857 24.344C42.4217 24.476 42.4397 24.602 42.4397 24.722C42.4397 25.082 42.2897 25.382 41.9897 25.622C41.7017 25.862 41.2817 26.042 40.7297 26.162C40.1777 26.294 39.4997 26.36 38.6957 26.36ZM37.2377 20.87H39.2537C39.4217 20.87 39.5417 20.834 39.6137 20.762C39.6977 20.69 39.7397 20.582 39.7397 20.438C39.7397 20.282 39.6917 20.15 39.5957 20.042C39.5117 19.934 39.3917 19.856 39.2357 19.808C39.0797 19.748 38.8937 19.718 38.6777 19.718C38.3897 19.718 38.1377 19.778 37.9217 19.898C37.7057 20.006 37.5377 20.15 37.4177 20.33C37.3097 20.498 37.2497 20.678 37.2377 20.87ZM51.9825 17.522C52.2945 17.834 52.4925 18.11 52.5765 18.35C52.6725 18.59 52.6665 18.824 52.5585 19.052C52.4625 19.28 52.2705 19.538 51.9825 19.826L46.2405 25.622C45.9645 25.898 45.7125 26.084 45.4845 26.18C45.2565 26.288 45.0225 26.294 44.7825 26.198C44.5545 26.102 44.2845 25.91 43.9725 25.622C43.6725 25.31 43.4745 25.034 43.3785 24.794C43.2945 24.554 43.3065 24.32 43.4145 24.092C43.5225 23.852 43.7085 23.6 43.9725 23.336L49.7145 17.522C50.1585 17.102 50.5365 16.886 50.8485 16.874C51.1605 16.85 51.5385 17.066 51.9825 17.522ZM43.9725 17.522C44.2725 17.222 44.5365 17.03 44.7645 16.946C45.0045 16.85 45.2385 16.85 45.4665 16.946C45.7065 17.042 45.9645 17.234 46.2405 17.522L51.9825 23.336C52.2585 23.612 52.4505 23.864 52.5585 24.092C52.6665 24.32 52.6785 24.554 52.5945 24.794C52.5105 25.034 52.3065 25.31 51.9825 25.622C51.6705 25.922 51.4005 26.114 51.1725 26.198C50.9445 26.294 50.7165 26.288 50.4885 26.18C50.2725 26.084 50.0145 25.898 49.7145 25.622L43.9725 19.826C43.6965 19.55 43.5045 19.298 43.3965 19.07C43.3005 18.842 43.2945 18.608 43.3785 18.368C43.4745 18.116 43.6725 17.834 43.9725 17.522ZM58.2661 26.162C57.6301 26.162 57.0781 26.09 56.6101 25.946C56.1421 25.802 55.7521 25.58 55.4401 25.28C55.1401 24.98 54.9121 24.602 54.7561 24.146C54.6121 23.69 54.5401 23.156 54.5401 22.544V15.56C54.5401 15.284 54.5641 15.032 54.6121 14.804C54.6601 14.564 54.7981 14.372 55.0261 14.228C55.2541 14.072 55.6381 13.994 56.1781 13.994C56.7061 13.994 57.0841 14.078 57.3121 14.246C57.5401 14.402 57.6781 14.606 57.7261 14.858C57.7741 15.11 57.7981 15.368 57.7981 15.632V22.382C57.7981 22.514 57.8041 22.628 57.8161 22.724C57.8401 22.808 57.8701 22.874 57.9061 22.922C57.9421 22.97 57.9901 23.006 58.0501 23.03C58.1101 23.054 58.1881 23.066 58.2841 23.066C58.5961 23.066 58.8721 23.09 59.1121 23.138C59.3641 23.186 59.5561 23.312 59.6881 23.516C59.8321 23.72 59.9041 24.062 59.9041 24.542C59.9041 25.082 59.8201 25.466 59.6521 25.694C59.4841 25.922 59.2741 26.054 59.0221 26.09C58.7701 26.138 58.5181 26.162 58.2661 26.162ZM54.1621 17.126H56.2681L58.7521 17.036C59.0161 17.036 59.2681 17.06 59.5081 17.108C59.7601 17.156 59.9641 17.294 60.1201 17.522C60.2881 17.75 60.3721 18.14 60.3721 18.692C60.3721 19.196 60.2881 19.562 60.1201 19.79C59.9641 20.018 59.7601 20.162 59.5081 20.222C59.2681 20.282 59.0101 20.312 58.7341 20.312L56.4481 20.258H54.0901C53.6821 20.234 53.4001 20.102 53.2441 19.862C53.0881 19.622 53.0101 19.226 53.0101 18.674C53.0101 18.158 53.1061 17.774 53.2981 17.522C53.4901 17.258 53.7781 17.126 54.1621 17.126Z" fill="white"/>
<path d="M22.4431 25.928L21.5533 27.1356L21.5744 27.1511L21.5961 27.166L22.4431 25.928ZM22.0291 25.298L20.5556 25.5787L22.0291 25.298ZM22.0291 14.408L20.5583 14.1138L20.5583 14.1138L22.0291 14.408ZM22.4431 13.814L21.6256 12.5563L21.6108 12.566L21.5961 12.576L22.4431 13.814ZM24.6931 13.778L23.8433 15.0141L23.8433 15.0141L24.6931 13.778ZM25.2151 14.282L26.4186 13.3866L26.4127 13.3787L26.4067 13.3708L25.2151 14.282ZM29.7151 20.33L28.5117 21.2254L31.2151 24.8588V20.33H29.7151ZM29.7871 14.408L28.3319 14.0442L28.3233 14.0788L28.3163 14.1138L29.7871 14.408ZM30.2191 13.814L29.3721 12.576L29.3721 12.576L30.2191 13.814ZM32.5231 13.832L31.6022 15.016L31.6383 15.0441L31.6761 15.07L32.5231 13.832ZM32.9371 14.444L31.4636 14.7247V14.7247L32.9371 14.444ZM32.9371 25.298L34.4106 25.5787L32.9371 25.298ZM32.5231 25.928L33.3702 27.166L33.3918 27.1511L33.4129 27.1356L32.5231 25.928ZM30.4171 26.054L30.8915 24.631L30.8661 24.6225L30.8404 24.615L30.4171 26.054ZM29.8951 25.676L31.0951 24.776L31.0909 24.7704L29.8951 25.676ZM25.2331 19.52L26.4289 18.6144L23.7331 15.0547V19.52H25.2331ZM25.1611 25.298L26.6346 25.5787L25.1611 25.298ZM24.7471 25.928L25.5942 27.166L25.6158 27.1511L25.6369 27.1356L24.7471 25.928ZM23.5771 24.662C23.3806 24.662 23.2612 24.6469 23.2008 24.6345C23.1346 24.6208 23.1886 24.6206 23.2902 24.69L21.5961 27.166C22.2141 27.5888 22.9801 27.662 23.5771 27.662V24.662ZM23.3329 24.7204C23.3439 24.7285 23.382 24.7596 23.4222 24.8207C23.4638 24.884 23.4905 24.9537 23.5026 25.0173L20.5556 25.5787C20.682 26.2421 21.0552 26.7686 21.5533 27.1356L23.3329 24.7204ZM23.5026 25.0173C23.4735 24.8645 23.4571 24.6949 23.4571 24.506H20.4571C20.4571 24.8691 20.4887 25.2275 20.5556 25.5787L23.5026 25.0173ZM23.4571 24.506V15.164H20.4571V24.506H23.4571ZM23.4571 15.164C23.4571 14.9911 23.4728 14.8381 23.5 14.7022L20.5583 14.1138C20.4894 14.4579 20.4571 14.8089 20.4571 15.164H23.4571ZM23.5 14.7022C23.4841 14.7816 23.4499 14.8644 23.3992 14.9372C23.3506 15.007 23.3046 15.0421 23.2902 15.052L21.5961 12.576C21.0901 12.9222 20.6932 13.4393 20.5583 14.1138L23.5 14.7022ZM23.2606 15.0717C23.1723 15.1291 23.1337 15.1246 23.2098 15.1094C23.2806 15.0952 23.4094 15.08 23.6131 15.08V12.08C23.001 12.08 22.2432 12.1549 21.6256 12.5563L23.2606 15.0717ZM23.6131 15.08C23.8225 15.08 23.9475 15.0937 24.0086 15.1049C24.0372 15.1101 24.0351 15.1119 24.0112 15.1033C23.9884 15.0951 23.925 15.0702 23.8433 15.0141L25.5429 12.5419C25.2018 12.3074 24.8315 12.2058 24.5496 12.1541C24.2508 12.0993 23.9318 12.08 23.6131 12.08V15.08ZM23.8433 15.0141C23.8924 15.0478 23.9539 15.1021 24.0236 15.1932L26.4067 13.3708C26.1643 13.0539 25.8778 12.7722 25.5429 12.5419L23.8433 15.0141ZM24.0117 15.1774L28.5117 21.2254L30.9186 19.4346L26.4186 13.3866L24.0117 15.1774ZM31.2151 20.33V15.164H28.2151V20.33H31.2151ZM31.2151 15.164C31.2151 14.9911 31.2308 14.8381 31.258 14.7022L28.3163 14.1138C28.2474 14.4579 28.2151 14.8089 28.2151 15.164H31.2151ZM31.2423 14.7718C31.2262 14.8366 31.1957 14.9034 31.1532 14.9618C31.1124 15.0179 31.0756 15.0455 31.0662 15.052L29.3721 12.576C28.8793 12.9132 28.4915 13.406 28.3319 14.0442L31.2423 14.7718ZM31.0662 15.052C31.0102 15.0903 30.9687 15.1075 30.9551 15.1127C30.9414 15.1179 30.9464 15.1146 30.9767 15.1085C31.0415 15.0953 31.1667 15.08 31.3711 15.08V12.08C30.7706 12.08 29.9937 12.1507 29.3721 12.576L31.0662 15.052ZM31.3711 15.08C31.579 15.08 31.6986 15.0965 31.7526 15.1083C31.7772 15.1137 31.7731 15.1149 31.7488 15.1047C31.7244 15.0945 31.6698 15.0686 31.6022 15.016L33.444 12.648C32.8052 12.1511 31.9729 12.08 31.3711 12.08V15.08ZM31.6761 15.07C31.6533 15.0544 31.6039 15.0145 31.5552 14.9425C31.5052 14.8685 31.4762 14.7905 31.4636 14.7247L34.4106 14.1633C34.2824 13.4901 33.8975 12.9548 33.3702 12.594L31.6761 15.07ZM31.4636 14.7247C31.4927 14.8775 31.5091 15.0471 31.5091 15.236H34.5091C34.5091 14.8729 34.4775 14.5145 34.4106 14.1633L31.4636 14.7247ZM31.5091 15.236V24.524H34.5091V15.236H31.5091ZM31.5091 24.524C31.5091 24.6966 31.4935 24.8605 31.4636 25.0173L34.4106 25.5787C34.4768 25.2315 34.5091 24.8794 34.5091 24.524H31.5091ZM31.4636 25.0173C31.4757 24.9537 31.5025 24.884 31.5441 24.8207C31.5842 24.7596 31.6223 24.7285 31.6333 24.7204L33.4129 27.1356C33.911 26.7686 34.2843 26.2421 34.4106 25.5787L31.4636 25.0173ZM31.6761 24.69C31.7344 24.6501 31.7774 24.6326 31.7906 24.6276C31.804 24.6225 31.7979 24.6261 31.7655 24.6326C31.6964 24.6464 31.5653 24.662 31.3531 24.662V27.662C31.9573 27.662 32.745 27.5937 33.3702 27.166L31.6761 24.69ZM31.3531 24.662C31.1906 24.662 31.0701 24.6547 30.9851 24.6449C30.8962 24.6346 30.8722 24.6246 30.8915 24.631L29.9428 27.477C30.3876 27.6253 30.8903 27.662 31.3531 27.662V24.662ZM30.8404 24.615C30.9039 24.6336 30.9635 24.6635 31.0134 24.6996C31.0617 24.7346 31.0872 24.7655 31.0951 24.776L28.6951 26.576C29.007 26.9919 29.4403 27.3302 29.9939 27.493L30.8404 24.615ZM31.0909 24.7704L26.4289 18.6144L24.0373 20.4256L28.6993 26.5816L31.0909 24.7704ZM23.7331 19.52V24.524H26.7331V19.52H23.7331ZM23.7331 24.524C23.7331 24.6966 23.7175 24.8605 23.6876 25.0173L26.6346 25.5787C26.7008 25.2315 26.7331 24.8794 26.7331 24.524H23.7331ZM23.6876 25.0173C23.6997 24.9537 23.7265 24.884 23.7681 24.8207C23.8082 24.7596 23.8463 24.7285 23.8573 24.7204L25.6369 27.1356C26.135 26.7686 26.5083 26.2421 26.6346 25.5787L23.6876 25.0173ZM23.9001 24.69C23.9584 24.6501 24.0014 24.6326 24.0146 24.6276C24.028 24.6225 24.0219 24.6261 23.9895 24.6326C23.9204 24.6464 23.7893 24.662 23.5771 24.662V27.662C24.1813 27.662 24.969 27.5937 25.5942 27.166L23.9001 24.69ZM36.4097 25.928L35.7598 27.2799L35.7704 27.285L35.7811 27.2899L36.4097 25.928ZM34.8977 24.776L33.7264 25.713L33.7322 25.7203L33.7381 25.7275L34.8977 24.776ZM34.0517 23.228L35.4778 22.763L34.0517 23.228ZM36.1577 17.432L36.879 18.7472H36.879L36.1577 17.432ZM40.6217 17.18L40.001 18.5455H40.001L40.6217 17.18ZM41.8997 18.098L40.7686 19.0832L40.7775 19.0934L40.7866 19.1034L41.8997 18.098ZM42.3677 22.022L41.2711 20.9985L41.2711 20.9985L42.3677 22.022ZM37.2377 22.562V21.062H35.3166L35.7825 22.9258L37.2377 22.562ZM37.5257 23.066L36.4651 24.1267L36.5092 24.1708L36.5568 24.2111L37.5257 23.066ZM38.1017 23.39L37.5832 24.7975L37.6163 24.8097L37.65 24.8204L38.1017 23.39ZM39.5417 23.462L39.717 24.9517L39.7599 24.9467L39.8024 24.9392L39.5417 23.462ZM40.0637 23.336L39.6226 21.9023L39.6059 21.9075L39.5894 21.913L40.0637 23.336ZM40.4777 23.192L39.9651 21.7823L39.9427 21.7904L39.9206 21.7993L40.4777 23.192ZM40.8197 23.084L41.1835 24.5392L41.2394 24.5252L41.2941 24.507L40.8197 23.084ZM41.7197 23.246L42.6568 22.0747L42.6568 22.0747L41.7197 23.246ZM42.2057 23.894L40.8641 24.5648L40.8742 24.5851L40.885 24.6052L42.2057 23.894ZM42.3857 24.344L40.9305 24.7078L40.9344 24.7233L40.9386 24.7387L42.3857 24.344ZM41.9897 25.622L41.0527 24.4507L41.041 24.4601L41.0294 24.4697L41.9897 25.622ZM40.7297 26.162L40.4111 24.6962L40.3959 24.6995L40.3809 24.7031L40.7297 26.162ZM37.2377 20.87L35.7406 20.7764L35.641 22.37H37.2377V20.87ZM39.6137 20.762L38.6375 19.6231L38.5938 19.6606L38.5531 19.7013L39.6137 20.762ZM39.5957 20.042L38.4117 20.9629L38.4419 21.0018L38.4746 21.0385L39.5957 20.042ZM39.2357 19.808L38.6973 21.208L38.7453 21.2265L38.7946 21.2417L39.2357 19.808ZM37.9217 19.898L38.5925 21.2396L38.6217 21.2251L38.6502 21.2092L37.9217 19.898ZM37.4177 20.33L36.1696 19.4979L36.1627 19.5083L36.156 19.5189L37.4177 20.33ZM38.6957 24.86C37.9485 24.86 37.4142 24.7395 37.0383 24.5661L35.7811 27.2899C36.6532 27.6925 37.643 27.86 38.6957 27.86V24.86ZM37.0597 24.5761C36.6044 24.3572 36.284 24.1008 36.0573 23.8245L33.7381 25.7275C34.2794 26.3872 34.967 26.8988 35.7598 27.2799L37.0597 24.5761ZM36.069 23.839C35.7909 23.4914 35.5987 23.1337 35.4778 22.763L32.6256 23.693C32.8647 24.4263 33.2365 25.1006 33.7264 25.713L36.069 23.839ZM35.4778 22.763C35.3407 22.3426 35.2817 21.9657 35.2817 21.626H32.2817C32.2817 22.3183 32.4027 23.0094 32.6256 23.693L35.4778 22.763ZM35.2817 21.626C35.2817 20.9064 35.4388 20.3403 35.7074 19.8798L33.1161 18.3682C32.5447 19.3477 32.2817 20.4496 32.2817 21.626H35.2817ZM35.7074 19.8798C35.9877 19.3994 36.3691 19.0268 36.879 18.7472L35.4365 16.1168C34.4583 16.6532 33.6758 17.4086 33.1161 18.3682L35.7074 19.8798ZM36.879 18.7472C37.3742 18.4756 37.9722 18.32 38.7137 18.32V15.32C37.5352 15.32 36.4292 15.5724 35.4365 16.1168L36.879 18.7472ZM38.7137 18.32C39.3019 18.32 39.7148 18.4155 40.001 18.5455L41.2424 15.8145C40.4726 15.4645 39.6136 15.32 38.7137 15.32V18.32ZM40.001 18.5455C40.3676 18.7122 40.6082 18.899 40.7686 19.0832L43.0308 17.1128C42.5433 16.553 41.9318 16.1278 41.2424 15.8144L40.001 18.5455ZM40.7866 19.1034C41.0103 19.3511 41.1492 19.5864 41.2316 19.8083L44.0439 18.7637C43.8143 18.1456 43.4612 17.5889 43.0129 17.0926L40.7866 19.1034ZM41.2316 19.8083C41.3401 20.1005 41.3717 20.3119 41.3717 20.456H44.3717C44.3717 19.8801 44.2473 19.3115 44.0439 18.7637L41.2316 19.8083ZM41.3717 20.456C41.3717 20.6789 41.3439 20.8199 41.3178 20.901C41.2937 20.9759 41.2722 20.9973 41.2711 20.9985L43.4643 23.0455C44.1458 22.3152 44.3717 21.371 44.3717 20.456H41.3717ZM41.2711 20.9985C41.2409 21.0309 41.2236 21.0387 41.2148 21.0424C41.2036 21.047 41.163 21.062 41.0717 21.062V24.062C41.9819 24.062 42.8225 23.7331 43.4643 23.0455L41.2711 20.9985ZM41.0717 21.062H37.2377V24.062H41.0717V21.062ZM35.7825 22.9258C35.8984 23.3895 36.1347 23.7963 36.4651 24.1267L38.5864 22.0053C38.6037 22.0227 38.6266 22.0501 38.6481 22.0878C38.6698 22.1257 38.6844 22.1641 38.6929 22.1982L35.7825 22.9258ZM36.5568 24.2111C36.8691 24.4753 37.2212 24.6641 37.5832 24.7975L38.6203 21.9825C38.5736 21.9653 38.5419 21.9498 38.5221 21.9386C38.5025 21.9276 38.4947 21.921 38.4946 21.9209L36.5568 24.2111ZM37.65 24.8204C38.0385 24.9431 38.4383 24.998 38.8397 24.998V21.998C38.7131 21.998 38.6209 21.9809 38.5534 21.9596L37.65 24.8204ZM38.8397 24.998C39.1467 24.998 39.4412 24.9842 39.717 24.9517L39.3665 21.9723C39.2343 21.9878 39.0607 21.998 38.8397 21.998V24.998ZM39.8024 24.9392C40.0547 24.8947 40.3043 24.8369 40.5381 24.759L39.5894 21.913C39.5351 21.9311 39.4368 21.9573 39.281 21.9848L39.8024 24.9392ZM40.5048 24.7697C40.6904 24.7126 40.8684 24.6513 41.0348 24.5847L39.9206 21.7993C39.8471 21.8287 39.749 21.8634 39.6226 21.9023L40.5048 24.7697ZM40.9903 24.6017C41.092 24.5647 41.1539 24.5466 41.1835 24.5392L40.4559 21.6288C40.2936 21.6694 40.1275 21.7233 39.9651 21.7823L40.9903 24.6017ZM41.2941 24.507C41.2768 24.5128 41.2177 24.53 41.1257 24.53V21.53C40.8417 21.53 40.5787 21.5832 40.3454 21.661L41.2941 24.507ZM41.1257 24.53C41.0634 24.53 40.9931 24.5189 40.9236 24.4937C40.8553 24.4689 40.8083 24.4378 40.7827 24.4173L42.6568 22.0747C42.23 21.7333 41.7061 21.53 41.1257 21.53V24.53ZM40.7827 24.4173C40.7588 24.3982 40.7585 24.3924 40.7762 24.416C40.7941 24.4398 40.8249 24.4865 40.8641 24.5648L43.5474 23.2232C43.3423 22.8131 43.0596 22.3969 42.6568 22.0747L40.7827 24.4173ZM40.885 24.6052C40.9209 24.6719 40.9299 24.7054 40.9305 24.7078L43.8409 23.9802C43.7695 23.6946 43.6585 23.4281 43.5264 23.1829L40.885 24.6052ZM40.9386 24.7387C40.9443 24.7597 40.9397 24.7524 40.9397 24.722H43.9397C43.9397 24.4516 43.8991 24.1923 43.8329 23.9493L40.9386 24.7387ZM40.9397 24.722C40.9397 24.6866 40.9489 24.6195 40.9856 24.5462C41.0208 24.4757 41.0578 24.4466 41.0527 24.4507L42.9268 26.7933C43.5551 26.2906 43.9397 25.5718 43.9397 24.722H40.9397ZM41.0294 24.4697C40.9973 24.4964 40.8367 24.6037 40.4111 24.6962L41.0484 27.6278C41.7267 27.4803 42.4061 27.2276 42.95 26.7743L41.0294 24.4697ZM40.3809 24.7031C39.9795 24.7991 39.4267 24.86 38.6957 24.86V27.86C39.5728 27.86 40.3759 27.7889 41.0786 27.6209L40.3809 24.7031ZM37.2377 22.37H39.2537V19.37H37.2377V22.37ZM39.2537 22.37C39.574 22.37 40.1853 22.3118 40.6744 21.8227L38.5531 19.7013C38.7286 19.5258 38.915 19.4434 39.0387 19.4063C39.1569 19.3708 39.2381 19.37 39.2537 19.37V22.37ZM40.5899 21.9009C41.1003 21.4634 41.2397 20.8788 41.2397 20.438H38.2397C38.2397 20.3676 38.2496 20.2391 38.3102 20.0833C38.3743 19.9185 38.4831 19.7555 38.6375 19.6231L40.5899 21.9009ZM41.2397 20.438C41.2397 19.9464 41.0772 19.4509 40.7168 19.0455L38.4746 21.0385C38.4004 20.9551 38.3367 20.8519 38.294 20.7346C38.252 20.6191 38.2397 20.5156 38.2397 20.438H41.2397ZM40.7797 19.1211C40.4725 18.726 40.0692 18.4951 39.6768 18.3743L38.7946 21.2417C38.7142 21.2169 38.551 21.142 38.4117 20.9629L40.7797 19.1211ZM39.7742 18.408C39.4043 18.2657 39.0266 18.218 38.6777 18.218V21.218C38.7171 21.218 38.7368 21.2208 38.7404 21.2214C38.7437 21.2219 38.7274 21.2196 38.6973 21.208L39.7742 18.408ZM38.6777 18.218C38.1773 18.218 37.6665 18.3239 37.1933 18.5868L38.6502 21.2092C38.6421 21.2137 38.6348 21.217 38.6289 21.2193C38.6231 21.2215 38.6199 21.2223 38.6201 21.2222C38.6205 21.2221 38.6379 21.218 38.6777 21.218V18.218ZM37.2509 18.5564C36.8292 18.7672 36.4507 19.0763 36.1696 19.4979L38.6658 21.1621C38.6479 21.1889 38.6278 21.2106 38.6099 21.2259C38.5927 21.2406 38.5843 21.2437 38.5925 21.2396L37.2509 18.5564ZM36.156 19.5189C35.9151 19.8935 35.7692 20.3191 35.7406 20.7764L38.7348 20.9636C38.7328 20.9953 38.7264 21.0304 38.7147 21.0653C38.7032 21.1 38.6895 21.1255 38.6795 21.1411L36.156 19.5189ZM51.9825 17.522L50.9078 18.5684L50.9148 18.5756L50.9219 18.5827L51.9825 17.522ZM52.5765 18.35L51.1607 18.8455L51.1716 18.8766L51.1838 18.9071L52.5765 18.35ZM52.5585 19.052L51.2029 18.4099L51.1888 18.4396L51.1761 18.4699L52.5585 19.052ZM51.9825 19.826L50.9219 18.7653L50.9169 18.7703L51.9825 19.826ZM46.2405 25.622L47.3012 26.6827L47.3061 26.6777L46.2405 25.622ZM45.4845 26.18L44.9024 24.7975L44.8721 24.8103L44.8424 24.8244L45.4845 26.18ZM44.7825 26.198L44.2004 27.5805L44.2129 27.5857L44.2254 27.5907L44.7825 26.198ZM43.9725 25.622L42.8913 26.6617L42.9223 26.6939L42.9551 26.7242L43.9725 25.622ZM43.3785 24.794L41.9627 25.2895L41.9736 25.3206L41.9858 25.3511L43.3785 24.794ZM43.4145 24.092L44.7701 24.7341L44.7764 24.7209L44.7824 24.7075L43.4145 24.092ZM43.9725 23.336L45.0332 24.3967L45.0398 24.39L43.9725 23.336ZM49.7145 17.522L48.6837 16.4323L48.6652 16.4498L48.6473 16.468L49.7145 17.522ZM50.8485 16.874L50.9062 18.3729L50.9349 18.3718L50.9636 18.3696L50.8485 16.874ZM43.9725 17.522L42.9119 16.4613L42.9015 16.4717L42.8913 16.4823L43.9725 17.522ZM44.7645 16.946L45.2831 18.3535L45.3025 18.3464L45.3216 18.3387L44.7645 16.946ZM45.4665 16.946L44.8844 18.3285L44.8969 18.3337L44.9094 18.3387L45.4665 16.946ZM46.2405 17.522L45.1575 18.5599L45.1654 18.568L45.1733 18.576L46.2405 17.522ZM51.9825 23.336L50.9153 24.3901L50.9219 24.3967L51.9825 23.336ZM52.5585 24.092L53.9141 23.4499L52.5585 24.092ZM52.5945 24.794L54.0103 25.2895V25.2895L52.5945 24.794ZM51.9825 25.622L53.0222 26.7032L53.023 26.7025L51.9825 25.622ZM51.1725 26.198L50.654 24.7905L50.6219 24.8023L50.5904 24.8155L51.1725 26.198ZM50.4885 26.18L51.1307 24.8244L51.1143 24.8166L51.0977 24.8093L50.4885 26.18ZM49.7145 25.622L48.6489 26.6777L48.6734 26.7024L48.6989 26.7259L49.7145 25.622ZM43.9725 19.826L45.0382 18.7703L45.0332 18.7653L43.9725 19.826ZM43.3965 19.07L42.0141 19.6521L42.0268 19.6824L42.0409 19.7121L43.3965 19.07ZM43.3785 18.368L41.9768 17.834L41.9695 17.8531L41.9627 17.8725L43.3785 18.368ZM50.9219 18.5827C51.0362 18.697 51.1064 18.7819 51.1462 18.8374C51.1879 18.8955 51.1788 18.8971 51.1607 18.8455L53.9923 17.8545C53.798 17.2992 53.4138 16.8319 53.0432 16.4613L50.9219 18.5827ZM51.1838 18.9071C51.1641 18.8577 51.1418 18.7741 51.1445 18.667C51.1473 18.5591 51.1745 18.47 51.2029 18.4099L53.9141 19.6941C54.2057 19.0786 54.2159 18.4096 53.9692 17.7929L51.1838 18.9071ZM51.1761 18.4699C51.1865 18.4452 51.1833 18.4617 51.1392 18.521C51.0963 18.5786 51.0272 18.66 50.9219 18.7653L53.0432 20.8867C53.3911 20.5387 53.7365 20.1197 53.941 19.6341L51.1761 18.4699ZM50.9169 18.7703L45.1749 24.5663L47.3061 26.6777L53.0481 20.8817L50.9169 18.7703ZM45.1799 24.5613C45.0825 24.6587 45.007 24.7223 44.9538 24.7616C44.8993 24.8018 44.8825 24.8059 44.9024 24.7975L46.0666 27.5625C46.5466 27.3603 46.9583 27.0256 47.3012 26.6827L45.1799 24.5613ZM44.8424 24.8244C44.9025 24.7959 44.9917 24.7688 45.0996 24.766C45.2066 24.7632 45.2902 24.7855 45.3396 24.8053L44.2254 27.5907C44.8421 27.8374 45.5111 27.8272 46.1267 27.5356L44.8424 24.8244ZM45.3646 24.8155C45.3794 24.8218 45.3519 24.8119 45.2783 24.7596C45.2072 24.709 45.1115 24.632 44.99 24.5198L42.9551 26.7242C43.3169 27.0582 43.7372 27.3854 44.2004 27.5805L45.3646 24.8155ZM45.0538 24.5823C44.9408 24.4648 44.8655 24.373 44.8178 24.3066C44.7687 24.2382 44.7628 24.2158 44.7712 24.2369L41.9858 25.3511C42.1861 25.8517 42.5355 26.2916 42.8913 26.6617L45.0538 24.5823ZM44.7943 24.2985C44.8111 24.3464 44.8273 24.422 44.8226 24.5153C44.8178 24.6089 44.7936 24.6846 44.7701 24.7341L42.0589 23.4499C41.7805 24.0376 41.7496 24.6804 41.9627 25.2895L44.7943 24.2985ZM44.7824 24.7075C44.7917 24.687 44.8482 24.5817 45.0332 24.3967L42.9119 22.2753C42.5689 22.6183 42.2534 23.017 42.0466 23.4765L44.7824 24.7075ZM45.0398 24.39L50.7818 18.576L48.6473 16.468L42.9053 22.282L45.0398 24.39ZM50.7453 18.6117C50.9125 18.4535 51.0221 18.3777 51.0752 18.3474C51.1326 18.3146 51.0677 18.3667 50.9062 18.3729L50.7909 15.3751C49.8993 15.4094 49.174 15.9685 48.6837 16.4323L50.7453 18.6117ZM50.9636 18.3696C50.7241 18.388 50.5948 18.3049 50.6218 18.3204C50.6305 18.3253 50.6607 18.344 50.7125 18.3863C50.7638 18.4282 50.8289 18.4874 50.9078 18.5684L53.0572 16.4756C52.7782 16.189 52.4627 15.9171 52.1102 15.7156C51.7592 15.5151 51.2849 15.336 50.7335 15.3784L50.9636 18.3696ZM45.0332 18.5827C45.1432 18.4726 45.2247 18.4047 45.2778 18.3661C45.3337 18.3254 45.3344 18.3346 45.2831 18.3535L44.246 15.5385C43.7154 15.734 43.2674 16.1058 42.9119 16.4613L45.0332 18.5827ZM45.3216 18.3387C45.283 18.3542 45.2129 18.374 45.12 18.374C45.0258 18.374 44.944 18.3535 44.8844 18.3285L46.0486 15.5635C45.4393 15.307 44.7955 15.3181 44.2074 15.5533L45.3216 18.3387ZM44.9094 18.3387C44.8838 18.3285 44.8955 18.3288 44.9445 18.3653C44.9929 18.4013 45.0642 18.4624 45.1575 18.5599L47.3235 16.4841C46.9719 16.1172 46.5406 15.7601 46.0236 15.5533L44.9094 18.3387ZM45.1733 18.576L50.9153 24.39L53.0498 22.282L47.3078 16.468L45.1733 18.576ZM50.9219 24.3967C51.0228 24.4976 51.0932 24.5791 51.1404 24.6411C51.1884 24.7041 51.2033 24.7349 51.2029 24.7341L53.9141 23.4499C53.7037 23.0056 53.3817 22.6138 53.0432 22.2753L50.9219 24.3967ZM51.2029 24.7341C51.1794 24.6846 51.1553 24.6089 51.1505 24.5153C51.1457 24.422 51.162 24.3464 51.1787 24.2985L54.0103 25.2895C54.2235 24.6804 54.1925 24.0376 53.9141 23.4499L51.2029 24.7341ZM51.1787 24.2985C51.2003 24.237 51.214 24.2329 51.1723 24.2894C51.1327 24.3429 51.061 24.4269 50.9421 24.5415L53.023 26.7025C53.4049 26.3347 53.8101 25.8615 54.0103 25.2895L51.1787 24.2985ZM50.9429 24.5408C50.825 24.6541 50.7366 24.726 50.6767 24.7686C50.6136 24.8134 50.6075 24.8076 50.654 24.7905L51.6911 27.6055C52.2102 27.4142 52.6595 27.052 53.0222 26.7032L50.9429 24.5408ZM50.5904 24.8155C50.6561 24.7879 50.7533 24.7629 50.87 24.766C50.9859 24.7691 51.0761 24.7986 51.1307 24.8244L49.8464 27.5356C50.4514 27.8222 51.1245 27.8458 51.7546 27.5805L50.5904 24.8155ZM51.0977 24.8093C51.1101 24.8148 51.0822 24.8036 51.0102 24.7517C50.9408 24.7017 50.8478 24.6264 50.7301 24.5181L48.6989 26.7259C49.0453 27.0445 49.4442 27.3573 49.8793 27.5507L51.0977 24.8093ZM50.7801 24.5663L45.0381 18.7703L42.9069 20.8817L48.6489 26.6777L50.7801 24.5663ZM45.0332 18.7653C44.9323 18.6644 44.8619 18.5829 44.8147 18.5209C44.7667 18.4579 44.7518 18.4271 44.7521 18.4279L42.0409 19.7121C42.2514 20.1564 42.5734 20.5482 42.9119 20.8867L45.0332 18.7653ZM44.779 18.4879C44.7994 18.5363 44.8175 18.6047 44.8195 18.6851C44.8216 18.7647 44.8071 18.8269 44.7943 18.8635L41.9627 17.8725C41.7597 18.4526 41.7694 19.0711 42.0141 19.6521L44.779 18.4879ZM44.7803 18.902C44.7738 18.919 44.7804 18.8954 44.8267 18.8294C44.872 18.7649 44.9442 18.6756 45.0538 18.5617L42.8913 16.4823C42.5262 16.8621 42.1749 17.314 41.9768 17.834L44.7803 18.902ZM55.4401 25.28L54.3794 26.3407L54.3898 26.3511L54.4004 26.3612L55.4401 25.28ZM54.7561 24.146L53.3257 24.5977L53.3311 24.6147L53.3368 24.6315L54.7561 24.146ZM54.6121 14.804L56.0799 15.113L56.0815 15.1056L56.083 15.0982L54.6121 14.804ZM55.0261 14.228L55.8271 15.4962L55.8504 15.4815L55.8731 15.466L55.0261 14.228ZM57.3121 14.246L56.4223 15.4536L56.4434 15.4691L56.4651 15.484L57.3121 14.246ZM57.7261 14.858L56.2526 15.1387V15.1387L57.7261 14.858ZM57.8161 22.724L56.3277 22.91L56.342 23.0248L56.3738 23.1361L57.8161 22.724ZM57.9061 22.922L56.7061 23.822L56.7061 23.822L57.9061 22.922ZM59.1121 23.138L58.8179 24.6089L58.8314 24.6115L59.1121 23.138ZM59.6881 23.516L58.4287 24.3309L58.4452 24.3563L58.4626 24.381L59.6881 23.516ZM59.6521 25.694L60.8597 26.5838L59.6521 25.694ZM59.0221 26.09L58.8099 24.6051L58.7755 24.61L58.7414 24.6165L59.0221 26.09ZM56.2681 17.126V18.626H56.2952L56.3224 18.625L56.2681 17.126ZM58.7521 17.036V15.536H58.7249L58.6978 15.537L58.7521 17.036ZM59.5081 17.108L59.2139 18.5789L59.2274 18.5815L59.5081 17.108ZM60.1201 17.522L58.8821 18.369L58.8969 18.3907L58.9125 18.4118L60.1201 17.522ZM60.1201 19.79L58.9125 18.9002L58.8969 18.9213L58.8821 18.943L60.1201 19.79ZM59.5081 20.222L59.1606 18.7628L59.1525 18.7647L59.1443 18.7668L59.5081 20.222ZM58.7341 20.312L58.6987 21.8116L58.7164 21.812H58.7341V20.312ZM56.4481 20.258L56.4835 18.7584L56.4658 18.758H56.4481V20.258ZM54.0901 20.258L54.002 21.7554L54.046 21.758H54.0901V20.258ZM53.2441 19.862L54.5017 19.0445L53.2441 19.862ZM53.2981 17.522L54.4912 18.4311L54.5014 18.4178L54.5112 18.4043L53.2981 17.522ZM58.2661 24.662C57.7375 24.662 57.341 24.6015 57.0512 24.5123L56.1689 27.3797C56.8152 27.5785 57.5227 27.662 58.2661 27.662V24.662ZM57.0512 24.5123C56.7779 24.4282 56.6015 24.3158 56.4797 24.1988L54.4004 26.3612C54.9027 26.8442 55.5063 27.1758 56.1689 27.3797L57.0512 24.5123ZM56.5007 24.2193C56.3833 24.1019 56.2674 23.9295 56.1753 23.6605L53.3368 24.6315C53.5568 25.2745 53.8968 25.8581 54.3794 26.3407L56.5007 24.2193ZM56.1865 23.6943C56.0994 23.4187 56.0401 23.0434 56.0401 22.544H53.0401C53.0401 23.2686 53.1247 23.9613 53.3257 24.5977L56.1865 23.6943ZM56.0401 22.544V15.56H53.0401V22.544H56.0401ZM56.0401 15.56C56.0401 15.3694 56.0568 15.2228 56.0799 15.113L53.1443 14.495C53.0714 14.8412 53.0401 15.1986 53.0401 15.56H56.0401ZM56.083 15.0982C56.0665 15.1802 56.0297 15.2718 55.9696 15.3555C55.9114 15.4364 55.8533 15.4797 55.8271 15.4962L54.2251 12.9598C53.689 13.2984 53.2784 13.8239 53.1412 14.5098L56.083 15.0982ZM55.8731 15.466C55.8171 15.5043 55.7757 15.5215 55.762 15.5267C55.7483 15.5319 55.7533 15.5286 55.7837 15.5225C55.8484 15.5093 55.9737 15.494 56.1781 15.494V12.494C55.5776 12.494 54.8007 12.5647 54.1791 12.99L55.8731 15.466ZM56.1781 15.494C56.3692 15.494 56.4806 15.5098 56.5322 15.5213C56.5877 15.5336 56.5262 15.5302 56.4223 15.4536L58.2019 13.0384C57.574 12.5758 56.7873 12.494 56.1781 12.494V15.494ZM56.4651 15.484C56.4423 15.4684 56.3929 15.4285 56.3442 15.3565C56.2941 15.2825 56.2651 15.2045 56.2526 15.1387L59.1996 14.5773C59.0714 13.9041 58.6864 13.3688 58.1591 13.008L56.4651 15.484ZM56.2526 15.1387C56.2824 15.2955 56.2981 15.4594 56.2981 15.632H59.2981C59.2981 15.2766 59.2657 14.9245 59.1996 14.5773L56.2526 15.1387ZM56.2981 15.632V22.382H59.2981V15.632H56.2981ZM56.2981 22.382C56.2981 22.5555 56.3057 22.7347 56.3277 22.91L59.3045 22.538C59.3024 22.5213 59.2981 22.4725 59.2981 22.382H56.2981ZM56.3738 23.1361C56.4272 23.3229 56.5223 23.5769 56.7061 23.822L59.1061 22.022C59.165 22.1006 59.2012 22.1697 59.2221 22.2158C59.2433 22.2624 59.254 22.2965 59.2584 22.3119L56.3738 23.1361ZM56.7061 23.822C56.9199 24.107 57.198 24.3047 57.493 24.4227L58.6072 21.6373C58.7822 21.7073 58.9643 21.8329 59.1061 22.022L56.7061 23.822ZM57.493 24.4227C57.7943 24.5432 58.0813 24.566 58.2841 24.566V21.566C58.2967 21.566 58.3311 21.5667 58.3817 21.5744C58.4316 21.5821 58.511 21.5988 58.6072 21.6373L57.493 24.4227ZM58.2841 24.566C58.5228 24.566 58.6969 24.5847 58.8179 24.6089L59.4063 21.6671C59.0472 21.5953 58.6694 21.566 58.2841 21.566V24.566ZM58.8314 24.6115C58.7866 24.603 58.7089 24.5796 58.6221 24.5226C58.5337 24.4645 58.4694 24.3937 58.4287 24.3309L60.9474 22.7011C60.5793 22.1322 60.0221 21.7844 59.3927 21.6645L58.8314 24.6115ZM58.4626 24.381C58.4192 24.3195 58.3971 24.2704 58.3878 24.2467C58.3784 24.223 58.3785 24.2167 58.3823 24.2345C58.3859 24.2519 58.3916 24.2855 58.3963 24.3388C58.4009 24.3916 58.4041 24.4588 58.4041 24.542H61.4041C61.4041 23.9943 61.3378 23.252 60.9135 22.651L58.4626 24.381ZM58.4041 24.542C58.4041 24.7411 58.388 24.8586 58.3757 24.9145C58.3701 24.9402 58.3679 24.9406 58.3753 24.9226C58.3828 24.9044 58.4029 24.8606 58.4445 24.8042L60.8597 26.5838C61.3251 25.9521 61.4041 25.1541 61.4041 24.542H58.4041ZM58.4445 24.8042C58.4563 24.7882 58.4954 24.7412 58.5703 24.694C58.6482 24.6451 58.7333 24.616 58.8099 24.6051L59.2342 27.5749C59.9311 27.4754 60.4825 27.0956 60.8597 26.5838L58.4445 24.8042ZM58.7414 24.6165C58.5803 24.6472 58.4222 24.662 58.2661 24.662V27.662C58.6139 27.662 58.9599 27.6288 59.3027 27.5635L58.7414 24.6165ZM54.1621 18.626H56.2681V15.626H54.1621V18.626ZM56.3224 18.625L58.8064 18.535L58.6978 15.537L56.2138 15.627L56.3224 18.625ZM58.7521 18.536C58.925 18.536 59.078 18.5517 59.2139 18.5789L59.8023 15.6371C59.4581 15.5683 59.1072 15.536 58.7521 15.536V18.536ZM59.2274 18.5815C59.1615 18.569 59.0836 18.54 59.0096 18.4899C58.9376 18.4412 58.8977 18.3918 58.8821 18.369L61.358 16.675C60.9972 16.1477 60.4619 15.7627 59.7887 15.6345L59.2274 18.5815ZM58.9125 18.4118C58.8692 18.353 58.8486 18.3076 58.8414 18.2897C58.8341 18.272 58.8367 18.2734 58.8427 18.3013C58.8557 18.3616 58.8721 18.4849 58.8721 18.692H61.8721C61.8721 18.0767 61.7959 17.2676 61.3277 16.6322L58.9125 18.4118ZM58.8721 18.692C58.8721 18.8668 58.8569 18.9661 58.8471 19.009C58.8368 19.0537 58.8419 18.9961 58.9125 18.9002L61.3277 20.6798C61.7842 20.0602 61.8721 19.2959 61.8721 18.692H58.8721ZM58.8821 18.943C58.8942 18.9253 58.9265 18.8849 58.9851 18.8435C59.045 18.8013 59.1079 18.7754 59.1606 18.7628L59.8555 21.6812C60.4956 21.5288 61.0068 21.1503 61.358 20.637L58.8821 18.943ZM59.1443 18.7668C59.0361 18.7938 58.9014 18.812 58.7341 18.812V21.812C59.1188 21.812 59.5001 21.7702 59.8719 21.6772L59.1443 18.7668ZM58.7695 18.8124L56.4835 18.7584L56.4127 21.7576L58.6987 21.8116L58.7695 18.8124ZM56.4481 18.758H54.0901V21.758H56.4481V18.758ZM54.1782 18.7606C54.1077 18.7564 54.1327 18.747 54.2085 18.7825C54.2981 18.8244 54.4137 18.9091 54.5017 19.0445L51.9864 20.6795C52.5009 21.471 53.3341 21.7161 54.002 21.7554L54.1782 18.7606ZM54.5017 19.0445C54.5615 19.1365 54.5563 19.1765 54.5403 19.0951C54.5255 19.0201 54.5101 18.8855 54.5101 18.674H51.5101C51.5101 19.2901 51.5827 20.0584 51.9864 20.6795L54.5017 19.0445ZM54.5101 18.674C54.5101 18.5038 54.5264 18.4062 54.5373 18.3628C54.5478 18.3208 54.5454 18.36 54.4912 18.4311L52.1049 16.6129C51.6232 17.2452 51.5101 18.0197 51.5101 18.674H54.5101ZM54.5112 18.4043C54.4605 18.4739 54.3805 18.5439 54.2831 18.5886C54.1939 18.6295 54.1409 18.626 54.1621 18.626V15.626C53.3944 15.626 52.6115 15.9158 52.085 16.6397L54.5112 18.4043Z" fill="#367B00"/>
<defs>
<linearGradient id="paint0_linear_2_1408" x1="40.5" y1="2" x2="40.5" y2="38" gradientUnits="userSpaceOnUse">
<stop stop-color="#8CE819"/>
<stop offset="1" stop-color="#7CDD11"/>
</linearGradient>
</defs>
</svg>
